<mxfile host="app.diagrams.net" agent="Mozilla/5.0 (Windows NT 10.0; Win64; x64) AppleWebKit/537.36 (KHTML, like Gecko) Chrome/133.0.0.0 Safari/537.36" version="26.0.15">
  <diagram name="Page-1" id="JwRD7U7plezm4rPpV4n2">
    <mxGraphModel dx="2072" dy="942" grid="1" gridSize="10" guides="1" tooltips="1" connect="1" arrows="1" fold="1" page="1" pageScale="1" pageWidth="850" pageHeight="1100" math="0" shadow="0">
      <root>
        <mxCell id="0" />
        <mxCell id="1" parent="0" />
        <mxCell id="UBRBjP6RiJXYdvzXjwuL-2" value="&lt;font style=&quot;font-size: 18px;&quot;&gt;Students&lt;/font&gt;" style="text;html=1;align=center;verticalAlign=middle;resizable=0;points=[];autosize=1;strokeColor=none;fillColor=none;" parent="1" vertex="1">
          <mxGeometry x="70" y="80" width="90" height="40" as="geometry" />
        </mxCell>
        <mxCell id="UBRBjP6RiJXYdvzXjwuL-20" value="Name" style="rounded=0;whiteSpace=wrap;html=1;" parent="1" vertex="1">
          <mxGeometry x="210" y="248" width="120" height="60" as="geometry" />
        </mxCell>
        <mxCell id="UBRBjP6RiJXYdvzXjwuL-21" value="&lt;u&gt;ID&lt;/u&gt;" style="rounded=0;whiteSpace=wrap;html=1;" parent="1" vertex="1">
          <mxGeometry x="90" y="248" width="120" height="60" as="geometry" />
        </mxCell>
        <mxCell id="UBRBjP6RiJXYdvzXjwuL-23" value="Phone" style="rounded=0;whiteSpace=wrap;html=1;" parent="1" vertex="1">
          <mxGeometry x="545" y="150" width="120" height="60" as="geometry" />
        </mxCell>
        <mxCell id="UBRBjP6RiJXYdvzXjwuL-24" value="Age" style="rounded=0;whiteSpace=wrap;html=1;" parent="1" vertex="1">
          <mxGeometry x="425" y="150" width="120" height="60" as="geometry" />
        </mxCell>
        <mxCell id="UBRBjP6RiJXYdvzXjwuL-25" value="Lname" style="rounded=0;whiteSpace=wrap;html=1;" parent="1" vertex="1">
          <mxGeometry x="310" y="150" width="120" height="60" as="geometry" />
        </mxCell>
        <mxCell id="UBRBjP6RiJXYdvzXjwuL-26" value="Fname" style="rounded=0;whiteSpace=wrap;html=1;" parent="1" vertex="1">
          <mxGeometry x="190" y="150" width="120" height="60" as="geometry" />
        </mxCell>
        <mxCell id="UBRBjP6RiJXYdvzXjwuL-27" value="&lt;u&gt;ID&lt;/u&gt;" style="rounded=0;whiteSpace=wrap;html=1;" parent="1" vertex="1">
          <mxGeometry x="70" y="150" width="120" height="60" as="geometry" />
        </mxCell>
        <mxCell id="UBRBjP6RiJXYdvzXjwuL-29" value="Course" style="text;html=1;align=center;verticalAlign=middle;resizable=0;points=[];autosize=1;strokeColor=none;fillColor=none;" parent="1" vertex="1">
          <mxGeometry x="80" y="218" width="60" height="30" as="geometry" />
        </mxCell>
        <mxCell id="UBRBjP6RiJXYdvzXjwuL-30" value="&lt;u&gt;ID&lt;/u&gt;" style="rounded=0;whiteSpace=wrap;html=1;" parent="1" vertex="1">
          <mxGeometry x="150" y="360" width="120" height="60" as="geometry" />
        </mxCell>
        <mxCell id="UBRBjP6RiJXYdvzXjwuL-31" value="Type" style="rounded=0;whiteSpace=wrap;html=1;" parent="1" vertex="1">
          <mxGeometry x="270" y="360" width="120" height="60" as="geometry" />
        </mxCell>
        <mxCell id="UBRBjP6RiJXYdvzXjwuL-32" value="C_Answer" style="rounded=0;whiteSpace=wrap;html=1;" parent="1" vertex="1">
          <mxGeometry x="390" y="360" width="120" height="60" as="geometry" />
        </mxCell>
        <mxCell id="UBRBjP6RiJXYdvzXjwuL-34" value="Question" style="text;html=1;align=center;verticalAlign=middle;resizable=0;points=[];autosize=1;strokeColor=none;fillColor=none;" parent="1" vertex="1">
          <mxGeometry x="175" y="320" width="70" height="30" as="geometry" />
        </mxCell>
        <mxCell id="UBRBjP6RiJXYdvzXjwuL-35" value="Date" style="rounded=0;whiteSpace=wrap;html=1;" parent="1" vertex="1">
          <mxGeometry x="420" y="590" width="120" height="60" as="geometry" />
        </mxCell>
        <mxCell id="UBRBjP6RiJXYdvzXjwuL-36" value="&lt;u&gt;ID&lt;/u&gt;" style="rounded=0;whiteSpace=wrap;html=1;" parent="1" vertex="1">
          <mxGeometry x="300" y="590" width="120" height="60" as="geometry" />
        </mxCell>
        <mxCell id="UBRBjP6RiJXYdvzXjwuL-37" value="Duration" style="rounded=0;whiteSpace=wrap;html=1;" parent="1" vertex="1">
          <mxGeometry x="540" y="590" width="120" height="60" as="geometry" />
        </mxCell>
        <mxCell id="UBRBjP6RiJXYdvzXjwuL-38" value="Degree" style="rounded=0;whiteSpace=wrap;html=1;" parent="1" vertex="1">
          <mxGeometry x="660" y="590" width="120" height="60" as="geometry" />
        </mxCell>
        <mxCell id="UBRBjP6RiJXYdvzXjwuL-39" value="&lt;font style=&quot;font-size: 18px;&quot;&gt;Exam&lt;/font&gt;" style="text;html=1;align=center;verticalAlign=middle;resizable=0;points=[];autosize=1;strokeColor=none;fillColor=none;" parent="1" vertex="1">
          <mxGeometry x="305" y="540" width="70" height="40" as="geometry" />
        </mxCell>
        <mxCell id="UBRBjP6RiJXYdvzXjwuL-43" style="edgeStyle=orthogonalEdgeStyle;rounded=0;orthogonalLoop=1;jettySize=auto;html=1;entryX=0;entryY=0.25;entryDx=0;entryDy=0;fillColor=#f8cecc;strokeColor=#b85450;" parent="1" source="UBRBjP6RiJXYdvzXjwuL-40" target="UBRBjP6RiJXYdvzXjwuL-27" edge="1">
          <mxGeometry relative="1" as="geometry">
            <mxPoint x="30" y="157" as="targetPoint" />
          </mxGeometry>
        </mxCell>
        <mxCell id="UBRBjP6RiJXYdvzXjwuL-40" value="&lt;u&gt;ST_ID&lt;/u&gt;" style="rounded=0;whiteSpace=wrap;html=1;" parent="1" vertex="1">
          <mxGeometry x="-160" y="610" width="120" height="60" as="geometry" />
        </mxCell>
        <mxCell id="UBRBjP6RiJXYdvzXjwuL-49" style="edgeStyle=orthogonalEdgeStyle;rounded=0;orthogonalLoop=1;jettySize=auto;html=1;exitX=0.5;exitY=0;exitDx=0;exitDy=0;entryX=0.25;entryY=1;entryDx=0;entryDy=0;fillColor=#dae8fc;strokeColor=#6c8ebf;" parent="1" source="UBRBjP6RiJXYdvzXjwuL-41" target="UBRBjP6RiJXYdvzXjwuL-21" edge="1">
          <mxGeometry relative="1" as="geometry" />
        </mxCell>
        <mxCell id="UBRBjP6RiJXYdvzXjwuL-41" value="&lt;u&gt;CRS_ID&lt;/u&gt;" style="rounded=0;whiteSpace=wrap;html=1;" parent="1" vertex="1">
          <mxGeometry x="-50" y="610" width="120" height="60" as="geometry" />
        </mxCell>
        <mxCell id="UBRBjP6RiJXYdvzXjwuL-42" value="Std_CRS" style="text;html=1;align=center;verticalAlign=middle;resizable=0;points=[];autosize=1;strokeColor=none;fillColor=none;" parent="1" vertex="1">
          <mxGeometry x="-190" y="570" width="70" height="30" as="geometry" />
        </mxCell>
        <mxCell id="UBRBjP6RiJXYdvzXjwuL-50" value="CRS_ID" style="rounded=0;whiteSpace=wrap;html=1;" parent="1" vertex="1">
          <mxGeometry x="510" y="360" width="120" height="60" as="geometry" />
        </mxCell>
        <mxCell id="UBRBjP6RiJXYdvzXjwuL-52" style="edgeStyle=orthogonalEdgeStyle;rounded=0;orthogonalLoop=1;jettySize=auto;html=1;exitX=0.75;exitY=0;exitDx=0;exitDy=0;entryX=0.683;entryY=0.05;entryDx=0;entryDy=0;entryPerimeter=0;fillColor=#ffe6cc;strokeColor=#d79b00;" parent="1" source="UBRBjP6RiJXYdvzXjwuL-21" target="UBRBjP6RiJXYdvzXjwuL-50" edge="1">
          <mxGeometry relative="1" as="geometry" />
        </mxCell>
        <mxCell id="UBRBjP6RiJXYdvzXjwuL-53" value="Body" style="rounded=0;whiteSpace=wrap;html=1;" parent="1" vertex="1">
          <mxGeometry x="630" y="360" width="120" height="60" as="geometry" />
        </mxCell>
        <mxCell id="UBRBjP6RiJXYdvzXjwuL-54" value="&lt;u&gt;ST_ID&lt;/u&gt;" style="rounded=0;whiteSpace=wrap;html=1;" parent="1" vertex="1">
          <mxGeometry x="30" y="760" width="120" height="60" as="geometry" />
        </mxCell>
        <mxCell id="UBRBjP6RiJXYdvzXjwuL-55" value="CRS_ID" style="rounded=0;whiteSpace=wrap;html=1;" parent="1" vertex="1">
          <mxGeometry x="150" y="760" width="120" height="60" as="geometry" />
        </mxCell>
        <mxCell id="UBRBjP6RiJXYdvzXjwuL-56" value="&lt;u&gt;EX_ID&lt;/u&gt;" style="rounded=0;whiteSpace=wrap;html=1;" parent="1" vertex="1">
          <mxGeometry x="270" y="760" width="120" height="60" as="geometry" />
        </mxCell>
        <mxCell id="UBRBjP6RiJXYdvzXjwuL-57" value="ST_ANSWER" style="rounded=0;whiteSpace=wrap;html=1;" parent="1" vertex="1">
          <mxGeometry x="390" y="760" width="120" height="60" as="geometry" />
        </mxCell>
        <mxCell id="UBRBjP6RiJXYdvzXjwuL-58" style="edgeStyle=orthogonalEdgeStyle;rounded=0;orthogonalLoop=1;jettySize=auto;html=1;entryX=-0.017;entryY=0.383;entryDx=0;entryDy=0;entryPerimeter=0;" parent="1" source="UBRBjP6RiJXYdvzXjwuL-54" target="UBRBjP6RiJXYdvzXjwuL-27" edge="1">
          <mxGeometry relative="1" as="geometry" />
        </mxCell>
        <mxCell id="UBRBjP6RiJXYdvzXjwuL-59" style="edgeStyle=orthogonalEdgeStyle;rounded=0;orthogonalLoop=1;jettySize=auto;html=1;entryX=0.397;entryY=0.91;entryDx=0;entryDy=0;entryPerimeter=0;" parent="1" source="UBRBjP6RiJXYdvzXjwuL-55" target="UBRBjP6RiJXYdvzXjwuL-21" edge="1">
          <mxGeometry relative="1" as="geometry" />
        </mxCell>
        <mxCell id="UBRBjP6RiJXYdvzXjwuL-60" style="edgeStyle=orthogonalEdgeStyle;rounded=0;orthogonalLoop=1;jettySize=auto;html=1;entryX=0.417;entryY=1.02;entryDx=0;entryDy=0;entryPerimeter=0;" parent="1" source="UBRBjP6RiJXYdvzXjwuL-56" target="UBRBjP6RiJXYdvzXjwuL-36" edge="1">
          <mxGeometry relative="1" as="geometry" />
        </mxCell>
        <mxCell id="UBRBjP6RiJXYdvzXjwuL-63" style="edgeStyle=orthogonalEdgeStyle;rounded=0;orthogonalLoop=1;jettySize=auto;html=1;entryX=0.5;entryY=1;entryDx=0;entryDy=0;" parent="1" source="UBRBjP6RiJXYdvzXjwuL-61" target="UBRBjP6RiJXYdvzXjwuL-30" edge="1">
          <mxGeometry relative="1" as="geometry" />
        </mxCell>
        <mxCell id="UBRBjP6RiJXYdvzXjwuL-61" value="&lt;u&gt;Q_ID&lt;/u&gt;" style="rounded=0;whiteSpace=wrap;html=1;" parent="1" vertex="1">
          <mxGeometry x="160" y="468" width="120" height="60" as="geometry" />
        </mxCell>
        <mxCell id="UBRBjP6RiJXYdvzXjwuL-62" value="&lt;u&gt;Choice&lt;/u&gt;" style="rounded=0;whiteSpace=wrap;html=1;" parent="1" vertex="1">
          <mxGeometry x="280" y="468" width="120" height="60" as="geometry" />
        </mxCell>
        <mxCell id="UBRBjP6RiJXYdvzXjwuL-64" value="Q_Choices" style="text;html=1;align=center;verticalAlign=middle;resizable=0;points=[];autosize=1;strokeColor=none;fillColor=none;" parent="1" vertex="1">
          <mxGeometry x="150" y="438" width="80" height="30" as="geometry" />
        </mxCell>
        <mxCell id="UBRBjP6RiJXYdvzXjwuL-65" value="take Exam" style="text;html=1;align=center;verticalAlign=middle;resizable=0;points=[];autosize=1;strokeColor=none;fillColor=none;" parent="1" vertex="1">
          <mxGeometry x="80" y="708" width="80" height="30" as="geometry" />
        </mxCell>
        <mxCell id="UBRBjP6RiJXYdvzXjwuL-66" value="ST_GRADE" style="rounded=0;whiteSpace=wrap;html=1;" parent="1" vertex="1">
          <mxGeometry x="510" y="760" width="120" height="60" as="geometry" />
        </mxCell>
        <mxCell id="UBRBjP6RiJXYdvzXjwuL-67" value="Mark" style="rounded=0;whiteSpace=wrap;html=1;" parent="1" vertex="1">
          <mxGeometry x="750" y="360" width="120" height="60" as="geometry" />
        </mxCell>
        <mxCell id="UBRBjP6RiJXYdvzXjwuL-70" value="&lt;u&gt;Q_ID&lt;/u&gt;" style="rounded=0;whiteSpace=wrap;html=1;" parent="1" vertex="1">
          <mxGeometry x="570" y="440" width="120" height="60" as="geometry" />
        </mxCell>
        <mxCell id="UBRBjP6RiJXYdvzXjwuL-71" value="&lt;u&gt;E_ID&lt;/u&gt;" style="rounded=0;whiteSpace=wrap;html=1;" parent="1" vertex="1">
          <mxGeometry x="690" y="440" width="120" height="60" as="geometry" />
        </mxCell>
        <mxCell id="UBRBjP6RiJXYdvzXjwuL-72" value="Q&amp;amp;E" style="text;html=1;align=center;verticalAlign=middle;resizable=0;points=[];autosize=1;strokeColor=none;fillColor=none;" parent="1" vertex="1">
          <mxGeometry x="520" y="420" width="50" height="30" as="geometry" />
        </mxCell>
        <mxCell id="UBRBjP6RiJXYdvzXjwuL-74" style="edgeStyle=orthogonalEdgeStyle;rounded=0;orthogonalLoop=1;jettySize=auto;html=1;exitX=0.5;exitY=1;exitDx=0;exitDy=0;entryX=0.67;entryY=-0.047;entryDx=0;entryDy=0;entryPerimeter=0;" parent="1" source="UBRBjP6RiJXYdvzXjwuL-71" target="UBRBjP6RiJXYdvzXjwuL-36" edge="1">
          <mxGeometry relative="1" as="geometry" />
        </mxCell>
        <mxCell id="UBRBjP6RiJXYdvzXjwuL-75" style="edgeStyle=orthogonalEdgeStyle;rounded=0;orthogonalLoop=1;jettySize=auto;html=1;exitX=0;exitY=0.25;exitDx=0;exitDy=0;entryX=0.917;entryY=0.99;entryDx=0;entryDy=0;entryPerimeter=0;" parent="1" source="UBRBjP6RiJXYdvzXjwuL-70" target="UBRBjP6RiJXYdvzXjwuL-30" edge="1">
          <mxGeometry relative="1" as="geometry" />
        </mxCell>
      </root>
    </mxGraphModel>
  </diagram>
</mxfile>
